<svg xmlns="http://www.w3.org/2000/svg" xml:space="preserve" style="fill-rule:evenodd;clip-rule:evenodd;stroke-linejoin:round;stroke-miterlimit:2" viewBox="0 0 3425 740" fill="currentColor"><path d="M159.83 592.054q-43.747 92.224-56.776 117.663C75.789 762.961-4.517 740.035.2 678.995q.87-11.117 10.754-31.589 58.348-120.868 117.034-241.678l110.773-228.916q34.65-72.389 69.636-144.516c17.718-36.526 65.06-44.091 91.538-12.243q4.353 5.226 12.186 21.858 90.19 191.438 175.355 365.751a3291 3291 0 0 0 39.592 78.394q14.293 27.344 32.74 51.425 47.285 61.762 120.741 81.541 88.421 21.742 170.441-14.12 97.547-47.816 134.191-153.265 15.22-49.144 11.849-101.638-7.89-92.08-69.608-159.386-51.525-53.85-122.959-71.32-33.723-7.739-67.811-6.323-1.656-.115-2.864.318-67.446 4.793-123.661 43.283-19.628 13.917-29.736 24.341-13.057 13.455-19.768 19.866a18.6 18.6 0 0 1-3.033 2.281q-24.57 14.582-48.044 5.804c-28.894-10.77-43.439-41.81-33.751-72.07q3.341-10.366 16.37-24.37 33.05-35.516 74.438-60.809Q757.271-3.016 863.045.275q50.796 2.57 99.204 18.739 128.153 45.65 194.645 161.869c53.491 93.495 65.2 206.249 30.943 309.157q-13.281 39.384-34.172 74.438-53.968 89.28-145.226 136.778-68.205 34.851-144.243 38.201c-102.489 4.447-197.397-29.654-268.297-106.633q-23.39-25.439-43.747-56.276-12.86-19.462-34.229-62.917-94.122-191.61-129.838-265.499-20.273-41.954-28.894-61.214a5.3 5.3 0 0 0-.393-.808 1.54 1.54 0 0 0-1.324-.771c-.576 0-1.106.332-1.371.858L287.309 328.49l-127.48 263.565ZM2580.132 60.745c-14.143-.049-25.588-10.713-25.542-23.798s11.565-23.668 25.708-23.619 25.588 10.713 25.542 23.798-11.565 23.668-25.708 23.619m-964.584-31q10.917 0 18.583.333a3.63 3.63 0 0 1 3.292 2.458l97.625 289.458a.67.67 0 0 1-.625.875h-36.208c-.397 0-.763-.266-.917-.667l-29.333-87.042a2.32 2.32 0 0 0-2.208-1.542q-11.875.084-50.542 0-38.625-.041-50.542-.167a2.32 2.32 0 0 0-2.208 1.542l-29.583 86.958c-.154.401-.52.667-.917.667l-36.208-.125a.67.67 0 0 1-.625-.875l98.5-289.167a3.63 3.63 0 0 1 3.333-2.458q7.625-.291 18.583-.25Zm-.792 173.542q23.25-.042 42.167.125l.042.001a1.55 1.55 0 0 0 1.542-1.542q0-.256-.084-.501-25.584-77.625-42.333-139.542-.292-1.125-1.458-1.125-1.167 0-1.458 1.125-16.624 61.959-42.042 139.625-.083.243-.083.5a1.55 1.55 0 0 0 1.542 1.542q18.958-.167 42.167-.208Zm202.708-69q.039.28.17.533c.402.77 1.35 1.081 2.1.689q.251-.131.439-.347 20.666-22.709 45.125-31.958 10.083-3.833 32.542-2.042 32.542 2.583 47.125 37.583a2.13 2.13 0 0 0 1.968 1.322 2.13 2.13 0 0 0 1.574-.697c19.458-21.625 39.667-38.583 69.25-38.958 47.375-.583 65.333 35.75 65.875 77.083q.209 13.5.125 143.583c0 .891-.734 1.625-1.625 1.625h-33.5a1.84 1.84 0 0 1-1.833-1.833q.084-120.25.167-129.875c.125-21.083-2.292-46.917-23.417-55.833-26.458-11.208-52.75 9.083-69.875 28.542a6.1 6.1 0 0 0-1.458 3.958v153.375a1.8 1.8 0 0 1-1.792 1.792h-32.583a1.883 1.883 0 0 1-1.875-1.875q.042-78.583 0-129.208c-.042-9.167-1.583-24.583-3.625-31.792-9.208-32.542-42.042-34.542-66.333-17.5q-14.334 10.041-22.875 19.875a8.56 8.56 0 0 0-2.083 5.583v153.375c0 .869-.696 1.583-1.542 1.583h-34.417c-.777 0-1.417-.658-1.417-1.458V106.829c0-.64.508-1.167 1.125-1.167h27.958c.569-.006 1.065.42 1.167 1l3.542 27.625Zm445.083 184.167v-18.762a2.806 2.806 0 0 0-2.792-2.792c-.713 0-1.399.273-1.917.762q-18.375 17.083-41 25.375c-38.542 14.167-85.833.25-91.792-46.083-9.375-72.958 77.958-85.542 130.125-91.667 1.73-.218 2.984-1.79 2.792-3.5-1.792-16.25-4.417-33.708-19.542-44.25-24.292-17-66.167-.583-87.875 14.583a2.626 2.626 0 0 1-3.833-.833l-11.708-20.25a3.515 3.515 0 0 1 1.167-4.708c27.958-17.583 59.583-28.083 92.75-25.625 50.333 3.708 65.958 46.208 65.542 90.292l.083 126.875c0 2.743-2.238 5-4.958 5h-22.625c-2.423 0-4.417-1.994-4.417-4.417m-7.5-108.833c-31.708 3.708-93.917 12.708-95.083 53.208-1.042 36.583 36.833 41.75 62.75 30.75q18.792-8 34.542-24.5a2.3 2.3 0 0 0 .667-1.625v-55.267a2.595 2.595 0 0 0-2.875-2.566Zm539.125 113.25c-1.074 0-1.958-.865-1.958-1.917q.042-100.041.083-136.25c.042-22.417-5.583-47.625-31.125-51.917-28-4.75-50.125 12.292-67.625 31.333a6 6 0 0 0-1.583 4.083v153.125c0 .823-.677 1.5-1.5 1.5h-33.458a1.55 1.55 0 0 1-1.542-1.542V108.661a3.14 3.14 0 0 1 3.125-3.125h24.958c2.126 0 3.875 1.768 3.875 3.917v25.021c0 1.189.978 2.167 2.167 2.167.6 0 1.174-.249 1.583-.688q4.084-4.334 17.458-15.5 29.75-24.792 68.708-19.125c41.875 6.083 51.875 46 52.042 82.333q.209 38.667.042 137.375c0 1.006-.846 1.833-1.875 1.833h-33.375Zm279.458-217.208c1.074 0 1.958.884 1.958 1.958v23.958a2.177 2.177 0 0 1-2.167 2.167h-39.815c-.754 0-1.375.621-1.375 1.375 0 .319.111.629.314.875 25.542 32.5 18.958 82.875-17.125 104.667q-38.291 23.083-77.417 6.542a3.69 3.69 0 0 0-3.75.583c-12.792 10.75-17.5 29.917-4.208 41.125q7.125 6.042 23.208 6.75 12.458.583 66.458.958c19.167.167 46.417 9.875 54.75 30.083 13.125 31.625-6.917 66.333-35.208 80q-62.374 30.084-127.5 5.625c-29.75-11.167-43.125-48.333-23.958-74.875q6.459-8.916 21.125-21.083l.117-.103c.865-.815.893-2.211.062-3.093l-.096-.096q-13-12.291-14.667-17.625-9.334-29.667 11.417-49.25 7.375-6.958 8.125-8.292a2.756 2.756 0 0 0-.5-3.375c-16.375-15.292-26.042-32-26.333-55.292-.75-61.167 54.833-89.75 110.083-74.917a39.6 39.6 0 0 0 10.208 1.333h66.292Zm-143.958 219.792c-23.542 18.833-27.75 52.667 4.833 65.25 32.292 12.458 79.125 9.792 102.667-19.583 8.333-10.417 8.542-31.583-6.042-38.833q-10.584-5.25-18.833-5.333-56.917-.5-61.083-.875c-5.25-.458-15.875-3.042-17.917-2.5a9.7 9.7 0 0 0-3.625 1.875Zm39.319-199.165c-25.623-.179-46.87 22.996-47.068 51.339s20.723 51.813 46.346 51.992 46.87-22.996 47.068-51.339-20.723-51.813-46.346-51.992m-516.111 11.624c.172-.259.264-.564.264-.875a1.59 1.59 0 0 0-1.583-1.583h-97.097a2.135 2.135 0 0 1-2.125-2.125v-25.5c0-1.166.959-2.125 2.125-2.125h143.458c1.193.003 2.21.859 2.375 2q2.209 15.167-1.25 20.25-106.25 155.958-111.167 162.917c-.156.219-.24.481-.24.75 0 .705.577 1.286 1.282 1.292h113.208c1.303 0 2.375 1.091 2.375 2.417v25.375c0 1.097-.903 2-2 2h-159.833a2.63 2.63 0 0 1-2.583-2.167q-2.5-14 4.958-24.875 62.833-91.584 107.833-157.75Zm145.208-30.167v212.75a2.21 2.21 0 0 1-2.208 2.208h-32.333a2.21 2.21 0 0 1-2.208-2.208v-212.75a2.21 2.21 0 0 1 2.208-2.208h32.333a2.21 2.21 0 0 1 2.208 2.208m-986.25 304.333c88.958-.292 132.583 68.417 132.875 150.625.25 82.167-42.917 151.208-131.875 151.5s-132.583-68.417-132.833-150.625c-.292-82.208 42.875-151.208 131.833-151.5m-64.292 151.125c0 40.208 14.042 94.458 64.917 94.458s64.875-54.292 64.875-94.5-14.042-94.5-64.917-94.458c-50.875 0-64.875 54.292-64.875 94.5m634.375 143.875c-39.25 13.292-95.5 13.75-114.917-32.25q-7.416-17.625-7.75-34.958-1.042-51.375-.292-98.167v-.042a2.68 2.68 0 0 0-2.667-2.667h-25.375a2.554 2.554 0 0 1-2.542-2.542v-44.833c0-1.646 1.354-3 3-3h27.583c1.857-.004 3.437-1.386 3.667-3.208l7.042-54c.23-1.868 1.848-3.287 3.75-3.292h48.458a2.64 2.64 0 0 1 2.625 2.625v54.042a2.554 2.554 0 0 0 2.542 2.542h48.125c1.44 0 2.625 1.204 2.625 2.667v47.417c0 .891-.734 1.625-1.625 1.625h-50.208c-.8 0-1.458.64-1.458 1.417q-.041 73.584.25 89.958c.583 32.208 21.375 36.833 47.125 29.208a2.376 2.376 0 0 1 3 1.792l9 42.25a2.97 2.97 0 0 1-1.958 3.417Zm204.708-199.333-27.625 38.25a2.385 2.385 0 0 1-3.167.625q-16.25-10.208-20-10.667c-37.917-4.708-58.708 21.25-59.875 56.75-.75 21.792 3.083 43.917 19.083 57.25 21.042 17.5 48.5 13.25 67.792-3.667l.17-.133c1.061-.757 2.545-.522 3.288.52l.125.196 23 39.833c.806 1.38.443 3.157-.833 4.083q-45.916 33.916-102.375 19.792c-59.042-14.792-84-73.5-76.792-130.042q7.875-62 61.667-86.792 60.625-27.959 114.708 9.25l.046.031c1.503 1.041 1.862 3.166.795 4.707l-.008.012Zm130.542-26.458c59.818 0 109.042 52.835 109.042 117.042s-49.223 117.042-109.042 117.042c-59.818 0-109.042-52.835-109.042-117.042s49.223-117.042 109.042-117.042m-40.667 116.917c0 26.25 6.958 63.042 40.75 63.042 33.792.042 40.75-36.792 40.75-63.042 0-26.208-6.917-63.042-40.708-63.042-33.833 0-40.792 36.792-40.792 63.042m369.083-81.458q.076.128.169.243c.716.891 2.024 1.046 2.897.344q.121-.098.226-.213c16.292-17.458 36.792-33.583 62.25-34.917 55.25-2.792 74.292 39.083 74.25 86.917q-.125 108.417.167 138.458c0 .983-.79 1.792-1.75 1.792h-61.833a2.64 2.64 0 0 1-2.625-2.625q.375-119.416-.167-137.5-.375-14.458-7.583-24.583a9 9 0 0 0-3.083-2.667c-19.583-10-38.208 1.375-52.25 15.583a5.71 5.71 0 0 0-1.667 4.042v145.25a2.47 2.47 0 0 1-2.458 2.458h-62.25a1.633 1.633 0 0 1-1.625-1.625l.001-.042q.666-83.125-.125-141.667c-.083-8.667-4.417-21.667-13.042-25.292-18.417-7.75-37.708 3.417-49.458 17.542a6.98 6.98 0 0 0-1.625 4.458v144.417c0 1.211-1.016 2.208-2.25 2.208h-61.375c-1.051 0-1.917-.846-1.917-1.875V489.079c0-.96.809-1.75 1.792-1.75h49.875c1.262.007 2.334.937 2.5 2.167l3.083 23.792a2.13 2.13 0 0 0 2.107 1.849c.531 0 1.043-.199 1.435-.557 15.625-14.542 31.958-27.917 52.792-31.375q49.542-8.167 73.542 33.542Zm244.708 101.125h-.016a2.22 2.22 0 0 0-2.151 2.708c11.083 49.417 66.542 53.917 102.583 30.5a2.13 2.13 0 0 1 3 .708l20.583 35.625c.575 1.022.245 2.34-.75 3-49.708 32.125-114.083 35.167-158.375-7.708-27-26.125-35.292-71.083-29.125-106.958q7.833-45.625 41.708-72.667c30.292-24.125 77.792-29.417 113.25-6.833 39.958 25.417 45.875 77.542 39.792 119.958-.144.96-.966 1.675-1.917 1.667zm-.25-43.625 77.333-.5c.533-.022.959-.466.959-.999l-.001-.042v-1.583c-.163-21.667-17.711-39.366-38.875-39.208h-2.167c-21.16.156-38.443 18.105-38.292 39.768v1.606c.022.533.466.959.999.959l.042-.001Zm330.833-61.917-25.208 34.917a2.8 2.8 0 0 1-3.667.75c-19.167-11.625-36.75-21.708-58.875-15.458-9.083 2.542-16.75 15.667-8.542 24 9.375 9.542 23.375 13.958 45.208 21.625 39.625 13.958 66.292 44.458 50.667 88.792-13.708 39.042-60.667 50.917-98.875 46.875q-38.459-4.083-70.208-28.083c-1.519-1.127-1.857-3.286-.75-4.792l26.25-36.333a2.294 2.294 0 0 1 3.208-.542c19.042 13.875 40.667 24.458 64.5 21.167 27.083-3.792 23.208-28.833 1.667-37.458q-29.541-11.834-44.708-18.708c-59.5-27.083-54.083-102.875 7.667-121.458q60.25-18.083 111.167 21.208c1.065.826 1.287 2.378.5 3.5Zm-1496.417 167.75q-1.292.875-9.083 8.75-37.709 37.875-90.042 20.5c-28.208-9.375-38.292-49.125-38.542-75.042q-.667-67.541-.25-144.167a3.014 3.014 0 0 1 3-2.958h59.208c1.587-.005 2.933 1.232 3.083 2.833q.625 7.5.208 122.792c-.083 23.708 1.208 48.875 33.333 45.5q18.25-1.917 31.5-21.625a11.67 11.67 0 0 0 2-6.542V489.58a2.303 2.303 0 0 1 2.292-2.292h61.958c.754 0 1.375.621 1.375 1.375v219.25c0 .777-.658 1.417-1.458 1.417h-49.667c-1.216-.006-2.252-.899-2.417-2.083l-4-26.125a1.583 1.583 0 0 0-2.5-1.042Z"/></svg>