<svg xmlns="http://www.w3.org/2000/svg" xml:space="preserve" style="fill-rule:evenodd;clip-rule:evenodd;stroke-linejoin:round;stroke-miterlimit:2" viewBox="0 0 709 87" fill="currentColor"><path d="M44.083 67.958v-48.5h15.458c11.917 0 17.083 4.792 17.083 12.667 0 4.792-3 9-9.125 10.917 7.083 1.375 10.708 5.083 10.708 11.125 0 8.208-6.208 13.792-17.042 13.792H43.998h.083Zm6.583-26.792h8.667c7.417 0 10.792-3.375 10.792-8.292 0-5.667-3.333-8.25-10.542-8.25h-8.917zm0 4.667v16.875h10.5c7.458 0 10.667-3.625 10.667-8.75s-3.5-8.125-10.708-8.125H50.667ZM116.667 48.458c0 1.875-.333 2.375-1.458 2.375H92.417c.167 8.625 4.458 12.875 10.917 12.875 6.042 0 8.542-3.333 10.083-3.333.5 0 .875.208 1.167.583l1.708 2.208c-2.958 3.625-8.542 5.292-13.417 5.292-9.458 0-16.333-6.5-16.333-18.292 0-9.625 6.042-17 16-17 8.208 0 14.208 5.583 14.208 15.333l-.083-.042Zm-24.042-1.375h18.667c0-5.583-3.167-9.5-8.667-9.5-5.833 0-9.167 3.542-10 9.5M125.833 67.958V33.666h3.458c1.333 0 1.708.458 1.875 1.667l.417 5.333c2.333-4.75 5.792-7.625 10.417-7.625 1.875 0 3.375.458 4.708 1.208l-.792 4.5c-.167.583-.5.833-1.042.833-.625 0-1.875-.667-4.208-.667-4.208 0-6.917 2.5-8.792 7.125v21.833h-6.042v.083ZM157.125 59.708v-21H153c-.708 0-1.292-.417-1.292-1.333v-2.417l5.625-.708 1.375-10.583c.083-.667.625-1.167 1.375-1.167h3.042v11.792h9.833v4.375h-9.833V59.25c0 2.875 1.542 4.25 3.75 4.25 2.542 0 3.625-1.625 4.333-1.625.292 0 .625.208.833.583l1.75 2.875c-2.083 1.917-5.167 3.125-8.292 3.125-5.417 0-8.417-3.125-8.417-8.792l.042.042ZM210.208 48.458c0 1.875-.333 2.375-1.458 2.375h-22.792c.167 8.625 4.458 12.875 10.917 12.875 6.042 0 8.583-3.333 10.083-3.333.5 0 .875.208 1.167.583l1.708 2.208c-3 3.625-8.542 5.292-13.417 5.292-9.458 0-16.333-6.5-16.333-18.292 0-9.625 6.042-17 16-17 8.208 0 14.208 5.583 14.208 15.333l-.083-.042Zm-24.083-1.375h18.667c0-5.583-3.167-9.5-8.667-9.5-5.833 0-9.167 3.542-10 9.5M220.125 18.083h6.042v49.833h-6.042zM258.083 39.333c-.292.5-.667.75-1.25.75-1.333 0-3.292-2.417-8-2.417-4.042 0-6.583 2.208-6.583 4.958 0 7.042 17.75 3.75 17.75 14.875 0 6.292-4.583 11.042-12.958 11.042-4.75 0-8.75-1.708-11.458-4.167l1.417-2.292c.375-.583.792-.917 1.625-.917 1.667 0 3.25 3.042 8.708 3.042 4.75 0 7-2.625 7-5.667 0-7.542-17.833-3.625-17.833-15.417 0-5.292 4.417-9.958 12.167-9.958 4.5 0 8.125 1.542 10.708 4l-1.333 2.208.042-.042ZM269.667 67.958V33.666h3.583q1.25 0 1.625 1.25l.458 3.542c2.542-3.125 5.542-5.333 9.708-5.333 4.625 0 7.5 2.792 8.75 7.125 1.875-5 6.417-7.125 10.917-7.125 7.167 0 11.417 4.708 11.417 13v21.833h-6.042V46.125c0-5.375-2.417-8.208-6.875-8.208-3.958 0-7.375 2.792-7.375 8.208v21.833h-6.042V46.125c0-5.5-2.25-8.208-6.5-8.208-2.958 0-5.5 1.708-7.667 4.458v25.542h-6.042l.083.042ZM352.458 67.958h-2.667c-1.167 0-1.875-.25-2.125-1.417l-.667-3.167c-3.625 3.25-6.667 5.125-11.958 5.125s-9.583-2.917-9.583-9.125c0-5.417 5.542-10.333 21.083-10.708v-2.667c0-5.333-2.292-8.083-6.75-8.083-5.833 0-7.708 3.625-9.792 3.625-.833 0-1.417-.458-1.792-1.125l-1.083-1.917c3.792-3.667 8.083-5.458 13.417-5.458 7.708 0 11.958 5.25 11.958 12.958v21.917zm-5.917-8.292v-7.125c-11.083.375-15.292 2.833-15.292 6.583s2.458 5.125 5.583 5.125c4.167 0 7-1.708 9.708-4.625zM364.5 67.958V33.666h3.583q1.25 0 1.625 1.25l.458 3.708c3-3.292 6.542-5.5 11.375-5.5 7.458 0 11.458 5.208 11.458 13v21.833h-6.042V46.124c0-5.167-2.333-8.208-7.208-8.208-3.542 0-6.667 1.833-9.292 4.75v25.25h-6.042l.083.042ZM404.5 67.958V33.666h3.583q1.25 0 1.625 1.25l.458 3.708c2.958-3.292 6.542-5.5 11.375-5.5 7.458 0 11.458 5.208 11.458 13v21.833h-6.042V46.124c0-5.167-2.333-8.208-7.208-8.208-3.542 0-6.667 1.833-9.292 4.75v25.25h-6.042l.083.042ZM474.25 27.917c-.5 1-1.125 1.375-2.042 1.375-1.833 0-4.25-3.375-9.833-3.375-5 0-7.583 2.542-7.583 6.167 0 9.292 22.583 4.292 22.583 20.583 0 8.833-6.208 15.875-17 15.875-6.208 0-12.292-2.542-16.083-6.417l2.625-4.375c.5-.625 1.208-1.125 2.083-1.125 2.25 0 4.917 4.458 11.625 4.458 5.167 0 8.167-2.542 8.167-7.125 0-10.375-22.542-3.5-22.542-21.375 0-7.167 5.833-14.042 16-14.042 5.792 0 10.792 1.917 14.208 5.125l-2.25 4.292.042-.042ZM489.417 58.875V39.5h-3.5c-.917 0-1.667-.583-1.667-1.75v-3.333l5.583-.917 1.75-9.458c.167-.917.875-1.417 1.875-1.417h4.333v10.917h9.125V39.5h-9.125v18.833c0 2.167 1.167 3.458 3 3.458 2.042 0 2.667-1.167 3.5-1.167.5 0 .75.25 1.125.75l2.5 4.042c-2.417 2.042-5.708 3.083-9.125 3.083-6 0-9.375-3.625-9.375-9.625ZM521.292 28.375c-2.875 0-5.292-2.417-5.292-5.25s2.417-5.333 5.292-5.333 5.417 2.375 5.417 5.333-2.458 5.25-5.417 5.25m4.167 4.875v34.708h-8.375V33.25zM540.167 67.958V39.541l-3-.458C535.834 38.833 535 38.208 535 37v-3.417h5.167V31c0-7.958 4.958-12.792 12.958-12.792 1.583 0 3.083.208 4.458.625l-.167 4.208c-.083 1.333-1.375 1.458-2.875 1.458-3.958 0-6.292 1.583-6.292 6.75v2.292h9.042v5.958h-8.75v28.458h-8.375ZM568.708 58.875V39.5h-3.5c-.917 0-1.667-.583-1.667-1.75v-3.333l5.583-.917 1.75-9.458c.167-.917.875-1.417 1.875-1.417h4.333v10.917h9.125V39.5h-9.125v18.833c0 2.167 1.167 3.458 3 3.458 2.083 0 2.667-1.167 3.5-1.167.5 0 .75.25 1.125.75l2.5 4.042c-2.417 2.042-5.708 3.083-9.125 3.083-6 0-9.375-3.625-9.375-9.625ZM603.292 33.167v22.167c0 4.25 1.958 6.667 5.875 6.667 2.875 0 5.375-1.333 7.667-3.625V33.251h8.375v34.708h-5.125c-1.083 0-1.792-.5-2.125-1.542l-.583-2.792c-2.875 2.875-6.042 4.833-10.75 4.833-7.583 0-11.708-5.458-11.708-13.208V33.167h8.375ZM637 68.042V33.25h5.125c1.083 0 1.792.5 2.125 1.542l.583 2.75c2.792-2.917 6.083-4.792 10.75-4.792 7.625 0 11.708 5.417 11.708 13.167V68h-8.375V45.917c0-4.25-1.958-6.667-5.875-6.667-2.875 0-5.375 1.375-7.667 3.667v25.125h-8.375ZM698.667 34.417h10v3.125c0 1.042-.458 1.583-1.792 1.833l-3.125.583c.458 1.167.708 2.458.708 3.917 0 6.875-5.833 11.25-13.583 11.25-1.333 0-2.583-.125-3.833-.375-1.083.625-1.625 1.375-1.625 2.208 0 5.542 22.333-2.042 22.333 11.167 0 6.083-6.167 12.083-16.792 12.083s-15.5-4.417-15.5-9.167c0-3.25 2.083-5.417 5.625-6.75-1.708-.958-2.833-2.417-2.833-4.958 0-2.083 1.417-4.583 4.5-6.083-3.5-1.875-5.667-5.125-5.667-9.333 0-6.917 5.833-11.25 13.792-11.25 2.958 0 5.625.625 7.792 1.792zm-12.792 31.208c-1.875 1.042-3.167 2.417-3.167 4.292 0 2.458 2.292 4.292 8.375 4.292s8.917-2 8.917-4.708c0-4.125-7.875-3.083-14.167-3.875h.042Zm11.167-21.542c0-3.417-2.083-5.583-6.167-5.583s-6.167 2.167-6.167 5.583 2.042 5.667 6.167 5.667 6.167-2.333 6.167-5.667" style="fill-rule:nonzero"/><path d="M0 0h6.042v86.208H0z"/></svg>