<svg xmlns="http://www.w3.org/2000/svg" xml:space="preserve" fill="currentColor" style="fill-rule:evenodd;clip-rule:evenodd;stroke-linejoin:round;stroke-miterlimit:2" viewBox="0 0 10417 10417"><path d="M8294.754 5208.333c0 1705.7-1380.717 3086.421-3086.421 3086.421V5208.333zM5208.333 2121.912v3086.421H2121.912c0-1705.7 1380.717-3086.421 3086.421-3086.421" style="fill-rule:nonzero"/><path d="M5208.333 2121.913v169.225c1608.392 0 2917.196 1308.5 2917.196 2917.196h169.225c0-1704.479-1381.942-3086.421-3086.421-3086.421m0 6003.617c-1608.392 0-2917.196-1308.5-2917.196-2917.196h-169.225c0 1704.479 1381.942 3086.421 3086.421 3086.421m0-8294.754C2331.929.001 0 2331.93 0 5208.334s2331.929 5208.333 5208.333 5208.333 5208.333-2331.929 5208.333-5208.333S8084.737.001 5208.333.001m4869.646 5208.333c0 2689.3-2180.042 4869.646-4869.646 4869.646S338.687 7897.634 338.687 5208.334 2519.033 338.688 5208.333 338.688s4869.646 2180.346 4869.646 4869.646" style="fill-rule:nonzero"/><path d="M2982.579 2695.729c166.433-174.1 260.667-375.238 94.229-567.263-90.558-104.217-242.617-127.004-368.663-75.654l-12.546 4.863 3.979-10.938c18.663-49.525 30.596-207.521-104.938-316.6-66.083-53.171-148.996-72.921-232.825-64.412-156.338 15.8-276.575 121.837-603.938 484.317-98.821 109.383-242.617 281.963-328.892 393.771l899.175 847.096c297.992-327.537 419.45-449.375 654.417-695.179m-1173.3-207.217c181.121-219.979 373.558-419.6 460.754-498.596 27.533-24.917 57.517-49.829 93.925-59.55 59.046-16.104 119.929 25.521 133.7 85.683 13.767 60.463-24.475 117.888-67 165.288-95.762 107.254-446.987 472.162-446.987 472.162l-174.392-164.988Zm352.142 331.792s342.046-359.138 453.717-473.988c44.363-45.575 72.817-73.225 103.408-88.113 39.467-19.142 82.604-23.092 121.154 2.429 37.938 25.217 55.375 68.667 45.892 111.812-11.321 51.35-53.542 100.267-88.417 137.638a2126614 2126614 0 0 1-453.412 481.888l-182.342-171.667Zm3149.708-1134.833 287.896-640.487 18.358-56.817-5.2 59.25 30.288 855.908c100.962 9.421 205.287 23.396 308.087 40.408l-46.812-1267.608c-143.796-15.8-286.975-27.042-430.158-33.117l-283.613 699.129-10.096 51.954-10.096-51.954-283.304-699.129c-143.183 6.075-286.367 17.317-430.158 33.117l-46.808 1267.608c102.796-17.017 207.125-30.688 308.088-40.408l30.287-855.908-5.2-59.25 18.358 56.817 287.896 640.488h262.196-.008ZM7702.09 3010.505c70.675 75.35 172.554 196.888 229.767 270.717l1053.675-664.188c-52.621-68.363-136.45-172.275-199.171-245.5l-667.267 438.133-45.588 38.892 33.958-49.221 294.625-583.975-208.35-206.912-588.333 292.596-49.562 33.725 39.467-45.271 441.479-662.367c-77.708-65.629-152.363-125.788-247.508-198.708L7120.486 2473.93c84.746 64.717 196.417 159.817 267.704 224.537l629.638-324.5 40.383-29.471-29.675 40.108-326.446 625.904v-.004Z" style="fill-rule:nonzero"/></svg>