<svg xmlns="http://www.w3.org/2000/svg" xml:space="preserve" fill="currentColor" style="fill-rule:evenodd;clip-rule:evenodd;stroke-linejoin:round;stroke-miterlimit:2" viewBox="0 0 488 175"><path d="M0 0h29.15l10.654 84.217h.558L51.57 0h28.592L57.741 111.692H22.424zm84.088 0h27.471v40.613h16.817V0h27.471v111.692h-27.471V65.7h-16.817v45.992H84.084zm75.121 0h29.15l11.213 84.217L210.78 0h29.154l-22.425 111.692h-35.317zM10.092 123.042h12.892l5.046 37.625 5.046-37.625h12.896l-10.096 50.167H20.184zm37.558 0h28.029v10.75H59.983v8.358h14.575v10.154H59.983v10.154h16.254v10.75H47.645l.004-50.167Zm32.513 0h19.058c9.529 0 12.896 5.375 12.896 13.137 0 6.571-2.246 10.75-7.85 11.946 6.167.596 7.85 4.775 7.85 11.346v4.179c0 2.392 0 5.975.558 7.167.563.6.563 1.196 1.125 1.792v.6h-12.896c-1.125-2.387-1.125-7.167-1.125-9.558v-3.583c0-5.375-1.117-7.167-3.921-7.167h-3.362v19.708H80.163zm12.333 20.9h2.242c3.362 0 5.042-2.387 5.042-5.971 0-4.183-1.679-5.975-5.042-5.975h-2.242zm43.171-6.567v-1.196c0-2.987-1.125-5.375-3.367-5.375-2.8 0-3.921 2.388-3.921 4.179 0 9.558 20.179 4.779 20.179 23.292 0 10.754-5.604 15.533-16.817 15.533-10.092 0-15.696-3.583-15.696-14.333v-1.792h11.771v1.192c0 4.179 1.683 5.971 3.925 5.971s3.925-2.388 3.925-4.775c0-9.558-19.062-4.779-19.062-22.696 0-10.154 5.046-15.529 15.137-15.529 10.65 0 15.133 4.775 15.133 15.529zm16.254-14.333h12.333v50.167h-12.333zm35.879 15.525c0-5.375-1.121-7.167-3.362-7.167-3.925 0-3.925 3.583-3.925 17.321 0 13.737.562 17.321 3.925 17.321 2.8 0 3.925-2.988 3.925-11.946h11.771v3.583c0 13.737-7.85 17.321-15.696 17.321-13.458 0-16.821-7.167-16.821-25.683 0-19.112 3.925-25.683 16.821-25.683 11.208 0 15.133 5.975 15.133 15.529v2.987H187.8zm16.254-15.525h12.333v18.512h7.292v-18.517h12.333v50.171h-12.333v-20.904h-7.292v20.904h-12.333v-50.167Zm37.562 0h27.467v10.75H253.95v8.358h14.575v10.154H253.95v10.154h16.258v10.75h-28.592v-50.167Zm32.508 0h19.062c9.529 0 12.892 5.375 12.892 13.137 0 6.571-2.242 10.75-7.85 11.946 6.167.596 7.85 4.775 7.85 11.346v4.179c0 2.392 0 5.975.562 7.167.558.6.558 1.196 1.121 1.792v.6h-12.896c-1.121-2.387-1.121-7.167-1.121-9.558v-3.583c0-5.375-1.125-7.167-3.925-7.167h-3.363v19.708h-12.333v-49.567Zm12.333 20.9h2.242c3.363 0 5.046-2.387 5.046-5.971 0-4.183-1.683-5.975-5.042-5.975h-2.246zm36.446-20.9v35.833c0 4.775 1.121 5.971 3.921 5.971 2.242 0 3.925-1.196 3.925-5.971v-35.833h12.333v32.846c0 13.738-5.604 17.917-15.696 17.917s-15.696-4.179-15.696-17.917v-32.85zm24.667 0h13.45l7.85 31.054h.563v-31.058h11.208v50.171h-13.45l-7.85-31.058h-.562v31.058h-11.208v-50.167Zm54.375 22.692h15.696v26.875h-8.408v-4.179c-1.683 4.183-6.167 5.375-10.092 5.375-12.333 0-13.458-9.554-13.458-25.679 0-16.725 2.808-25.683 17.383-25.683 8.408 0 14.575 4.775 14.575 16.721H405.87c0-2.388 0-4.179-.563-5.971-.562-1.196-1.125-2.388-2.804-2.388-3.925 0-4.483 3.583-4.483 17.321s.558 17.321 3.925 17.321c2.8 0 3.925-1.792 3.925-10.75h-4.488v-8.958l.563-.004Zm20.183-22.692h28.029v10.75h-15.696v8.358h14.575v10.154h-14.575v10.154h16.258v10.75h-28.592v-50.167Zm32.512 0h14.012l7.85 31.054v-31.058h11.213v50.171h-13.454l-7.85-31.058v31.058H454.64zM241.617 111.692h21.863L286.459 0h-21.863zm33.075 0h22.425L319.542 0h-21.867zm33.633 0h21.863L353.171 0h-21.863z" style="fill-rule:nonzero"/><path d="M0 0h29.15l10.654 84.217h.558L51.57 0h28.592L57.741 111.692H22.424zm84.088 0h27.471v40.613h16.817V0h27.471v111.692h-27.471V65.7h-16.817v45.992H84.084zm75.121 0h29.15l11.213 84.217L210.78 0h29.154l-22.425 111.692h-35.317zM10.092 123.042h12.892l5.046 37.625 5.046-37.625h12.896l-10.096 50.167H20.184zm37.558 0h28.029v10.75H59.983v8.358h14.575v10.154H59.983v10.154h16.254v10.75H47.645l.004-50.167Zm32.513 0h19.058c9.529 0 12.896 5.375 12.896 13.137 0 6.571-2.246 10.75-7.85 11.946 6.167.596 7.85 4.775 7.85 11.346v4.179c0 2.392 0 5.975.558 7.167.563.6.563 1.196 1.125 1.792v.6h-12.896c-1.125-2.387-1.125-7.167-1.125-9.558v-3.583c0-5.375-1.117-7.167-3.921-7.167h-3.362v19.708H80.163zm12.333 20.9h2.242c3.362 0 5.042-2.387 5.042-5.971 0-4.183-1.679-5.975-5.042-5.975h-2.242zm43.171-6.567v-1.196c0-2.987-1.125-5.375-3.367-5.375-2.8 0-3.921 2.388-3.921 4.179 0 9.558 20.179 4.779 20.179 23.292 0 10.754-5.604 15.533-16.817 15.533-10.092 0-15.696-3.583-15.696-14.333v-1.792h11.771v1.192c0 4.179 1.683 5.971 3.925 5.971s3.925-2.388 3.925-4.775c0-9.558-19.062-4.779-19.062-22.696 0-10.154 5.046-15.529 15.137-15.529 10.65 0 15.133 4.775 15.133 15.529zm16.254-14.333h12.333v50.167h-12.333zm35.879 15.525c0-5.375-1.121-7.167-3.362-7.167-3.925 0-3.925 3.583-3.925 17.321 0 13.737.562 17.321 3.925 17.321 2.8 0 3.925-2.988 3.925-11.946h11.771v3.583c0 13.737-7.85 17.321-15.696 17.321-13.458 0-16.821-7.167-16.821-25.683 0-19.112 3.925-25.683 16.821-25.683 11.208 0 15.133 5.975 15.133 15.529v2.987H187.8zm16.254-15.525h12.333v18.512h7.292v-18.517h12.333v50.171h-12.333v-20.904h-7.292v20.904h-12.333v-50.167Zm37.562 0h27.467v10.75H253.95v8.358h14.575v10.154H253.95v10.154h16.258v10.75h-28.592v-50.167Zm32.508 0h19.062c9.529 0 12.892 5.375 12.892 13.137 0 6.571-2.242 10.75-7.85 11.946 6.167.596 7.85 4.775 7.85 11.346v4.179c0 2.392 0 5.975.562 7.167.558.6.558 1.196 1.121 1.792v.6h-12.896c-1.121-2.387-1.121-7.167-1.121-9.558v-3.583c0-5.375-1.125-7.167-3.925-7.167h-3.363v19.708h-12.333v-49.567Zm12.333 20.9h2.242c3.363 0 5.046-2.387 5.046-5.971 0-4.183-1.683-5.975-5.042-5.975h-2.246zm36.446-20.9v35.833c0 4.775 1.121 5.971 3.921 5.971 2.242 0 3.925-1.196 3.925-5.971v-35.833h12.333v32.846c0 13.738-5.604 17.917-15.696 17.917s-15.696-4.179-15.696-17.917v-32.85zm24.667 0h13.45l7.85 31.054h.563v-31.058h11.208v50.171h-13.45l-7.85-31.058h-.562v31.058h-11.208v-50.167Zm54.375 22.692h15.696v26.875h-8.408v-4.179c-1.683 4.183-6.167 5.375-10.092 5.375-12.333 0-13.458-9.554-13.458-25.679 0-16.725 2.808-25.683 17.383-25.683 8.408 0 14.575 4.775 14.575 16.721H405.87c0-2.388 0-4.179-.563-5.971-.562-1.196-1.125-2.388-2.804-2.388-3.925 0-4.483 3.583-4.483 17.321s.558 17.321 3.925 17.321c2.8 0 3.925-1.792 3.925-10.75h-4.488v-8.958l.563-.004Zm20.183-22.692h28.029v10.75h-15.696v8.358h14.575v10.154h-14.575v10.154h16.258v10.75h-28.592v-50.167Zm32.512 0h14.012l7.85 31.054v-31.058h11.213v50.171h-13.454l-7.85-31.058v31.058H454.64zM241.617 111.692h21.863L286.459 0h-21.863zm33.075 0h22.425L319.542 0h-21.867zm33.633 0h21.863L353.171 0h-21.863z" style="fill-rule:nonzero"/></svg>